<svg xmlns="http://www.w3.org/2000/svg" xmlns:xlink="http://www.w3.org/1999/xlink" width="1919" height="825" viewBox="0 0 1919 825">
    <defs>
        <linearGradient id="a" x1="13.339%" x2="90.932%" y1="11.125%" y2="93.404%">
            <stop offset="3.79%" stop-color="#4651D3"/>
            <stop offset="55.76%" stop-color="#5057EF"/>
        </linearGradient>
        <path id="b" d="M317.15 391.411H7.176A7.173 7.173 0 0 1 0 384.241V7.17C0 3.21 3.213 0 7.176 0H317.15a7.173 7.173 0 0 1 7.176 7.17v377.072c0 3.96-3.213 7.17-7.176 7.17z"/>
        <path id="d" d="M70.228 66.904l-13.07-1.226 3.485 10.606L20.94 89.206 1.026 27.426C-2.52 16.646 3.422 5.034 14.277 1.5A20.827 20.827 0 0 1 22.92.59h.008C30.914.416 47.018 1.764 70.22 11.658v55.246h.008z"/>
        <path id="f" d="M19.786.009L20 11.753c0 4.819-3.805 8.365-9.164 9.133-2.116.3-3.924-.023-5.414-.618C2.338 19.034.42 16.993.262 13.99L0 9.12C0 9.102 16.766-.33 19.786.008z"/>
        <path id="h" d="M31.758.735s-5.154 25.448-12.873 25.448C11.158 26.183.858 28.724 0 39.758h43.781l1.716-3.39.857 3.39h23.181v-39L31.758.735z"/>
        <linearGradient id="j" x1="18.101%" x2="100.127%" y1="17.887%" y2="76.2%">
            <stop offset="3.79%" stop-color="#FFBE5F"/>
            <stop offset="92.66%" stop-color="#FFA836"/>
        </linearGradient>
        <path id="k" d="M108.006 87.044c-22.888 2.137-41.386-.727-61.54-16.848v25.39H0l.41-72.607C.41 10.285 10.722 0 23.434 0c3.812 0 7.412.925 10.578 2.57l.023.014 4.959 3.464 95.499 62.693s-.403 15.863-26.487 18.303z"/>
        <linearGradient id="m" x1="23.192%" x2="87.258%" y1="36.088%" y2="63.346%">
            <stop offset="0%" stop-color="#6B83DD"/>
            <stop offset="51.57%" stop-color="#7A8CE5"/>
            <stop offset="63.65%" stop-color="#7A8CE5"/>
        </linearGradient>
        <filter id="n" width="119%" height="122.6%" x="-9.5%" y="-11.3%" filterUnits="objectBoundingBox">
            <feOffset dy="2" in="SourceAlpha" result="shadowOffsetOuter1"/>
            <feGaussianBlur in="shadowOffsetOuter1" result="shadowBlurOuter1" stdDeviation="4"/>
            <feColorMatrix in="shadowBlurOuter1" result="shadowMatrixOuter1" values="0 0 0 0 0 0 0 0 0 0 0 0 0 0 0 0 0 0 0.239619755 0"/>
            <feMerge>
                <feMergeNode in="shadowMatrixOuter1"/>
                <feMergeNode in="SourceGraphic"/>
            </feMerge>
        </filter>
        <path id="o" d="M61.161 0c15.57 16.809 14.663 43.137-2.035 58.819C42.43 74.493 16.274 73.579.696 56.77c0 0 10.585-14.935 27.948-31.462C44.456 10.266 61.16 0 61.16 0z"/>
        <path id="q" d="M76.058 141.964C38.714 146.655 4.66 119.976 0 82.384l124.872-15.682H83.465s1.407-21.15 2.005-27.266l1.044-18.484C86.514 9.383 95.835 0 107.335 0c11.492 0 20.813 9.383 20.813 20.952 0 0-.794 10.96 0 16.45.401 2.727 2.664 9.003 4.146 14.997 1.347 5.46 1.892 8.248 2.376 10.563.129.61.462 1.82.575 2.437 6.688 37.28-21.842 71.873-59.187 76.565z"/>
        <path id="s" d="M109.363.643c3.767 30.396-17.659 58.119-47.861 61.911C31.307 66.347 3.768 44.778 0 14.375c0 0 23.023-7.799 54.602-11.98 28.757-3.808 54.76-1.752 54.76-1.752z"/>
        <path id="u" d="M25.685 6.257L1.172 11.04.256 6.295a1.87 1.87 0 0 1 1.468-2.193L22.59.035a1.86 1.86 0 0 1 2.18 1.478l.915 4.744z"/>
        <path id="w" d="M31.3 4.295L.25 10.35l2.315-5.567L27.078 0z"/>
    </defs>
    <g fill="none" fill-rule="evenodd">
        <path fill="#DFE9F4" fill-rule="nonzero" d="M1484.33 461.883s-8.658-103.203 18.711-115.64c84.186-38.269 77.562 176.426 142.362 139.391 31.5-18 156.951-56.06 106.785 153.972-12.177 50.994-17.856 67.176-17.856 67.176l-248.301 11.052-1.701-255.95z"/>
        <path fill="#E6EDF4" fill-rule="nonzero" d="M275 625.134s16.416-412.389 177.255-405.819c160.839 6.57 170.694 285.58 318.411 269.172 147.717-16.416 101.763-200.24 213.363-190.386 111.6 9.855 55.8 241.695 219.933 327.042H275v-.009z"/>
        <g transform="translate(959 145.54)">
            <path fill="#4C4F93" fill-rule="nonzero" d="M619.363 464.898c-6.548-2.867-32.198.19-33.692-6.845-4.285-20.101 13.716-70.473 69.293-101.132 34.975-19.295 54.174-6.061 38.347 13.219-47.58 57.97-31.618 95.511-64.985 96.553-3.078.107-6.141-.563-8.963-1.795z"/>
            <path stroke="#666DAD" stroke-width=".9" d="M681.188 360.77s-57.57 33.077-90.515 105.27"/>
            <path fill="#4165B7" fill-rule="nonzero" d="M670.107 412.46H685v39.258c0 5.037-1.191 10.022-3.679 14.389-2.837 4.984-7.677 9.976-15.682 9.976-16.01 0-15.638.377-15.638.377v-10.541l20.106-53.46"/>
            <path fill="#A0C0F2" fill-rule="nonzero" d="M26.292 472.46s-34.976-24.732-24.247-63.813c9.85-35.87 61.376-16.991 82.592-40.024 31.703-34.42-104.55-95.107-77.288-148.77 15.155-29.829 71.408-1.32 115.174 2.644 41.674 3.776 13.639-64.19 31.824-88.356 20.958-27.85 59.102-16.236 88.653 16.237V472.46H26.292z"/>
            <path fill="#343DB2" fill-rule="nonzero" d="M225.88 438.675c-10.89 2.895-32.793-1.258-43.842-21.373-11.05-20.114-3.784-33.173-5.966-46.815-2.055-12.876-4.479-34.613 3.277-50.407 9.433-19.213-12.56-49.43.544-63.899 10.12-11.178 24.432 1.206 33.684 19.653 9.252 18.44 7.424 26.92 18.942 39.873 13.164 14.809 12.907 36.621 12.582 45.185-.415 10.967 4.698 12.877 7.371 31.279 1.896 13.013-5.128 40.805-26.592 46.504z"/>
            <path fill="#393A8E" fill-rule="nonzero" d="M212.036 457.327c3.769-2.956 5.914-7.534 5.718-12.324-.574-13.687-7.13-40.812-48.404-50.635-56.16-13.369-32.544 2.274-21.034 14.31 23.76 24.843 36.418 56.28 58.215 51.332 2.009-.47 3.882-1.41 5.505-2.683z"/>
            <path stroke="#4D52A0" stroke-linecap="round" stroke-width="1.8" d="M157.923 403.039s44.182 21.6 66.084 72.379"/>
            <path stroke="#5563CE" stroke-linecap="round" stroke-width="1.35" d="M187.378 259.039s32.475 81.094 42.293 216.379"/>
            <g stroke="#5563CE" stroke-linecap="round" stroke-width="1.35">
                <path d="M215.7 367.039s10.195-22.358 18.125-49.263M204.37 315.502c-.528-21.994 7.553-41.684 7.553-41.684M180.203 296.555s13.473 5.926 24.168 18.189M175.671 333.691s33.579 19.827 40.028 33.348M176.427 384.47s41.727 22.495 48.615 42.89"/>
            </g>
            <path fill="#363C68" fill-rule="nonzero" d="M624.351 431.742c-5.123.516-9.715 8.796-14.178 6.223-11.643-6.71-23.066-41.895.949-83.556C620.184 338.7 643 324.46 643 324.46s-7.317 23.977-11.18 39.665c-12.88 52.309 2.535 61.675-1.2 65.599-1.525 1.601-4.06 1.799-6.269 2.019z"/>
            <path fill="url(#a)" fill-rule="nonzero" d="M567.114 473.46H246.886c-8.22 0-14.886-6.658-14.886-14.868V59.327c0-8.209 6.667-14.867 14.886-14.867h320.228c8.22 0 14.886 6.658 14.886 14.867v399.265c0 8.21-6.667 14.868-14.886 14.868z"/>
            <g transform="translate(243 71.46)">
                <mask id="c" fill="#fff">
                    <use xlink:href="#b"/>
                </mask>
                <use fill="#E6EDF4" fill-rule="nonzero" xlink:href="#b"/>
                <path fill="#D6E5F2" fill-rule="nonzero" d="M142.461 391.411H17.43L146.25 0h125.032zM-44.709 391.411H-210.66L-81.839 0H84.113z" mask="url(#c)"/>
            </g>
            <path fill="#2B3DBC" fill-rule="nonzero" d="M572.911 44.46H566c8.332 0 15.089 6.658 15.089 14.867v399.265c0 8.21-6.757 14.868-15.089 14.868h6.911c8.332 0 15.089-6.658 15.089-14.868V59.327c0-8.209-6.757-14.867-15.089-14.867z"/>
            <path fill="#C4D9F7" fill-rule="nonzero" d="M422.945 402.868H303.838L294 414.46v-38.796c0-15.02 12.11-27.204 27.055-27.204h101.89c14.938 0 27.055 12.176 27.055 27.204 0 15.02-12.11 27.204-27.055 27.204z"/>
            <path fill="#A0C0F2" fill-rule="nonzero" d="M473.914 422.377h-83.98L383 430.46v-27.038c0-10.472 8.541-18.962 19.078-18.962h71.844c10.537 0 19.078 8.49 19.078 18.962-.008 10.465-8.55 18.955-19.086 18.955z"/>
            <circle cx="259" cy="59.46" r="5" fill="#F3F4F6" fill-rule="nonzero"/>
            <circle cx="278" cy="59.46" r="5" fill="#F3F4F6" fill-rule="nonzero"/>
            <circle cx="299" cy="59.46" r="5" fill="#F3F4F6" fill-rule="nonzero"/>
            <path fill="#FFFFFD" fill-rule="nonzero" d="M337.523 163.898H199.492L182 180.46v-41.781c0-13.927 11.408-25.22 25.477-25.22h130.046c14.07 0 25.477 11.293 25.477 25.22s-11.408 25.219-25.477 25.219z"/>
            <path stroke="#686868" stroke-linecap="round" stroke-width="1.35" d="M204.097 153.37L179 177.46v-41.781c0-13.927 11.408-25.22 25.477-25.22h130.046c14.07 0 25.477 11.293 25.477 25.22s-11.408 25.219-25.477 25.219H205.618"/>
            <path fill="#D6E5F2" fill-rule="nonzero" d="M337.092 133.46H208.908c-1.053 0-1.908-.896-1.908-2s.855-2 1.908-2h128.184c1.053 0 1.908.896 1.908 2s-.855 2-1.908 2zM285.095 144.46h-76.19c-1.052 0-1.905-.896-1.905-2s.853-2 1.905-2h76.19c1.052 0 1.905.896 1.905 2s-.853 2-1.905 2z"/>
            <path stroke="#FFF" stroke-width=".9" d="M548 420.46c-16.824-10.5-26-21-26-21"/>
            <path fill="#F46E45" fill-rule="nonzero" d="M564.612 375.255l.007-18.87-24.258 12.28L525 355.57l.806-22.11 16.98 8.19 30.949-21.11c1.537-1.572 2.644-2.289 2.644-2.289l18.57-2.791s10.495 3.264 15.557 18.823L636 385.46l-71.388-10.205z"/>
            <g transform="translate(423 357.46)">
                <mask id="e" fill="#fff">
                    <use xlink:href="#d"/>
                </mask>
                <use fill="#1051AF" fill-rule="nonzero" xlink:href="#d"/>
                <path fill="#024991" fill-rule="nonzero" d="M118.373 68.335L55.067 85.762s-1.522-15.898-8.368-36.337c-3.537-10.568-12.126-19.667-14.454-29.523-3.043-12.87-.76-22.71-.76-22.71l57.905-22.93 28.983 94.073z" mask="url(#e)"/>
            </g>
            <path stroke="#FFF" stroke-linecap="round" stroke-width=".9" d="M471 406.46s7.496 8.354 20 7.988"/>
            <g transform="translate(576 303.46)">
                <mask id="g" fill="#fff">
                    <use xlink:href="#f"/>
                </mask>
                <use fill="#FFA187" fill-rule="nonzero" xlink:href="#f"/>
                <path fill="#F98D73" fill-rule="nonzero" d="M22.992.085S17.517 10.66 7.347 13.68c-6.03 1.79-12.515-.755-12.515-.755L-8 1.271l31-7.953-.008 6.767z" mask="url(#g)"/>
            </g>
            <path stroke="#FFF" stroke-width=".9" d="M518 347.46l-5-4c1.83 1.068 3.507 2.424 5 4z"/>
            <path fill="#A0C0F2" fill-rule="nonzero" d="M470.017 337.56h-97.465c-11.904 0-21.552-9.647-21.552-21.55s9.648-21.55 21.552-21.55h88.896c11.904 0 21.552 9.647 21.552 21.55v32.45l-12.983-10.9z"/>
            <g stroke="#D6E5F2" stroke-linecap="round" stroke-width="2.7">
                <path d="M384 309.24h68M384 320.55h68"/>
            </g>
            <path stroke="#FFF" stroke-width=".9" d="M526 410.46a131.507 131.507 0 0 1-9-8"/>
            <path fill="#222956" fill-rule="nonzero" d="M447.005 444.837s3.256 14.625-4.076 14.625c-7.333 0-17.11 2.438-17.929 12.998h41.558l1.632-3.248.813 3.248H491l-9.777-39"/>
            <g transform="translate(450 433.46)">
                <mask id="i" fill="#fff">
                    <use xlink:href="#h"/>
                </mask>
                <use fill="#34418C" fill-rule="nonzero" xlink:href="#h"/>
                <path fill="#203166" fill-rule="nonzero" d="M28.327 0h43.265v9.75H28.327z" mask="url(#i)"/>
            </g>
            <path fill="#A0A0A0" fill-rule="nonzero" d="M523.699 364.46h-73.398a2.306 2.306 0 0 1-2.301-2.314v-53.373a2.306 2.306 0 0 1 2.301-2.313h73.398a2.306 2.306 0 0 1 2.301 2.313v53.373a2.306 2.306 0 0 1-2.301 2.314z"/>
            <path fill="#FFBBAB" fill-rule="nonzero" d="M594.539 302.424c-6.882 7.68-12.557 9.29-12.557 9.29s-12.964 3.772-18.631-5.654c-4.86-8.078-.808-14.546 0-21.013.807-6.467 2.43-8.891 2.43-8.891s12.013-11.015 27.113-2.41c15.1 8.606 1.441 29.408 1.441 29.408"/>
            <circle cx="575.5" cy="288.96" r="5.5" stroke="#FFF" stroke-width=".9"/>
            <circle cx="562.5" cy="288.96" r="5.5" stroke="#FFF" stroke-width=".9"/>
            <path stroke="#515151" stroke-linecap="round" stroke-linejoin="round" stroke-width=".9" d="M569 289.46s-4 6.298-4 7.149c0 .85 3.358.85 3.358.85M567 299.46s3.553 4.5 8 0"/>
            <circle cx="573" cy="290.46" r="1" fill="#071E54" fill-rule="nonzero"/>
            <circle cx="565" cy="290.46" r="1" fill="#071E54" fill-rule="nonzero"/>
            <path fill="#071E54" fill-rule="nonzero" d="M585.335 283.385c-1.227-2.037-2.454-8.158-17.179-3.262-14.724 4.897-14.656-5.747-13.893-8.028.99-2.973 4.115-4.494 7.347-5.034 4.908-.813 1.798-5.61 7.895-7.892 7.995-2.995 9.908 4.562 14.191 2.996 5.685-2.076 11.722-1.475 15.532 3.087 10.106 12.104 5.327 30.785-2.035 36.495-1.082.844-1.95 2.03-2.454 1.634-.503-.395-.427-5.694-.084-10.758.084-1.277 1.868-3.209 1.7-4.258-.236-1.444-1.136-2.653-3.247-2.121-3.27.814-4.542 5.619-7.362 5.71-.251.008.816-6.524-.411-8.569z"/>
            <path stroke="#FFF" stroke-width=".9" d="M516 408.46s5.315-1.563 6-.781"/>
            <path fill="url(#j)" fill-rule="nonzero" d="M636.393 410.918c-.068.046-.121.106-.189.144a14.541 14.541 0 0 1-16.63 1.438L532 354.808l10.11-17.096a3.02 3.02 0 0 1 4.105-1.083l46.877 26.943-9.001-17.899c-3.63-7.212-.74-16.014 6.443-19.647a14.445 14.445 0 0 1 6.55-1.566 14.564 14.564 0 0 1 13.03 8.045l30.315 60.303c3.2 6.342 1.343 13.91-4.036 18.11z"/>
            <path stroke="#FFF" stroke-linecap="round" stroke-width=".9" d="M592 363.46s6.605 2.294 14 11"/>
            <path fill="#FFBBAB" fill-rule="nonzero" d="M593.933 295.46c.989-.948 4.955-8.536 1.979-10.431-3.688-2.357-5.912 3.369-5.912 3.369l3.933 7.062z"/>
            <g transform="translate(478 339.46)">
                <mask id="l" fill="#fff">
                    <use xlink:href="#k"/>
                </mask>
                <use fill="#2BAAE2" fill-rule="nonzero" xlink:href="#k"/>
                <path fill="#0DA0D3" fill-rule="nonzero" d="M41.044 64.686s61.745 17.826 72.748-15.014c11.004-32.84 30.375 10.61 30.375 10.61s-18.225 43.2-26.578 43.2c-8.353 0-76.697-21.978-76.697-30.315s.152-8.48.152-8.48z" mask="url(#l)"/>
            </g>
            <path fill="#15A1D1" fill-rule="nonzero" d="M515.035 400.403c-6.948-6.471 5.709 4.893 10.886 9.718L526 435.46l-9.87-.364-1.095-34.693z"/>
            <path stroke="#FFF" stroke-linecap="round" stroke-linejoin="round" stroke-width=".9" d="M514 398.46s16.746 18.685 30 23"/>
            <path fill="#FFDFD9" fill-rule="nonzero" d="M539 342.938s-4.845-3.748-13.568-3.463L525 351.7l6.94 2.76 7.06-11.521z"/>
            <path fill="#FFBE3B" fill-rule="nonzero" d="M519.155 243.508H370.282c-17.277 0-31.282-14.114-31.282-31.524s14.005-31.524 31.282-31.524h136.436c17.277 0 31.282 14.113 31.282 31.524v47.476l-18.845-15.952z"/>
            <path stroke="#686868" stroke-linecap="round" stroke-width="1.35" d="M506.431 241.508H367.282c-17.277 0-31.282-14.114-31.282-31.524s14.005-31.524 31.282-31.524h136.436c17.277 0 31.282 14.113 31.282 31.524v47.476l-27.89-23.548"/>
            <path fill="#FFFFFD" fill-rule="nonzero" d="M510.115 198.46h-143.23c-1.04 0-1.885-.896-1.885-2s.844-2 1.885-2h143.23c1.04 0 1.885.896 1.885 2s-.844 2-1.885 2zM510.09 209.46h-77.18c-1.054 0-1.91-.896-1.91-2s.856-2 1.91-2h77.18c1.054 0 1.91.896 1.91 2s-.856 2-1.91 2z"/>
            <path fill="#5057EF" fill-rule="nonzero" d="M294.845 283.508h148.873c17.277 0 31.282-14.114 31.282-31.524s-14.005-31.524-31.282-31.524H307.282c-17.277 0-31.282 14.113-31.282 31.524v47.476l18.845-15.952z"/>
            <path stroke="#686868" stroke-linecap="round" stroke-width="1.35" d="M302.398 280.508h138.32c17.277 0 31.282-14.114 31.282-31.524s-14.005-31.524-31.282-31.524H304.282c-17.277 0-31.282 14.113-31.282 31.524v47.476l24.121-20.51"/>
            <path fill="#FFFFFD" fill-rule="nonzero" d="M447.115 247.46h-143.23c-1.04 0-1.885-.896-1.885-2s.844-2 1.885-2h143.23c1.04 0 1.885.896 1.885 2s-.844 2-1.885 2zM380.09 261.46h-77.18c-1.054 0-1.91-.896-1.91-2s.856-2 1.91-2h77.18c1.054 0 1.91.896 1.91 2s-.856 2-1.91 2z"/>
            <path fill="url(#m)" fill-rule="nonzero" d="M646.515 473.46h-78.03c-12.97 0-23.485-10.584-23.485-23.638 0-13.054 10.515-23.637 23.485-23.637h87.121L670 412.46v37.362c0 13.054-10.515 23.638-23.485 23.638z"/>
            <path fill="#FFF" fill-rule="nonzero" d="M637.433 446.46h-60.866c-.31 0-.567-.227-.567-.5 0-.274.257-.5.567-.5h60.866c.31 0 .567.226.567.5 0 .273-.257.5-.567.5zM637.433 458.46h-60.866c-.31 0-.567-.227-.567-.5 0-.274.257-.5.567-.5h60.866c.31 0 .567.226.567.5 0 .273-.257.5-.567.5z"/>
            <path fill="#FFFFFD" fill-rule="nonzero" d="M148.001 115.46c1.332 0 1.332-2 0-2-1.331 0-1.338 2 0 2z"/>
            <path fill="#5869DD" fill-rule="nonzero" d="M190.05 55.396l-3.23-7.715a1.988 1.988 0 0 0-2.603-1.066l-23.995 10.041a1.986 1.986 0 0 0-1.067 2.602l10.048 23.98a1.988 1.988 0 0 0 2.603 1.067L195.8 74.263a1.986 1.986 0 0 0 1.067-2.601l-3.23-7.715a.71.71 0 0 1 .09-.709l4.124-5.419a.712.712 0 0 0-.477-1.14l-6.758-.865a.675.675 0 0 1-.567-.418z"/>
            <path fill="#FFFFFD" fill-rule="nonzero" d="M489.018 334.59l.017-2.494a.594.594 0 0 0-.598-.595l-7.799-.041a.594.594 0 0 0-.597.595l-.041 7.769c0 .326.262.595.597.595l7.8.04c.327 0 .597-.26.597-.594l.016-2.495c0-.073.041-.147.107-.187l1.776-1.011c.139-.082.147-.286 0-.367l-1.76-1.027a.216.216 0 0 1-.115-.188z"/>
            <path fill="#FFF" fill-rule="nonzero" d="M131 308.46l16 11.2s-13.442 5.26-16-11.2zM131 288.976l-12 2.484s3.702-9.345 12-2.484z"/>
            <path fill="#10244C" fill-rule="nonzero" d="M578 314.46l-7.878-1.517s-.701-.251-1.737-1.626c-.587-.778-.4-3.78-.114-5.547.195-1.242.978-2.31 2.283-2.31h1.378c1.028 0 1.925.66 2.202 1.61 0 0 1.003 3.544 1.59 4.676 1.575 3.032 2.276 4.714 2.276 4.714z"/>
            <path stroke="#F3F4F6" stroke-linecap="round" stroke-width=".9" d="M451.5 313.46v20"/>
            <g filter="url(#n)" transform="translate(77 298.46)">
                <path fill="#DB7521" fill-rule="nonzero" d="M53.717 70.068S52.204 54.074 69.605 52.55c17.401-1.523 18.158-.762 18.158-.762v12.186l-34.046 6.093z"/>
                <g transform="translate(107.312 30.205)">
                    <mask id="p" fill="#fff">
                        <use xlink:href="#o"/>
                    </mask>
                    <use fill="#D6D6D6" fill-rule="nonzero" xlink:href="#o"/>
                    <path fill="#BCBCBC" fill-rule="nonzero" d="M28.757 76.983S64.96 65.955 59.361 53.625c-3.193-7.037-14.602.708-14.602.708s14.836-9.086 12.862-12.947c-2.92-5.712-16.645 6.093-16.645 6.093S54.966 36.58 51.538 32.07C48.844 28.537 35.68 42.147 35.68 42.147s13.21-13.183 9.434-17.311c-3.086-3.39-13.973 8.934-13.973 8.934s10.07-10 6.945-13.991c-3.806-4.851-21.192 18.857-21.192 18.857s1.173-5.72-1.036-7.052c-2.21-1.333-3.79 10.251-3.79 10.251l-15.094 14.47 26.253 24.547" mask="url(#p)"/>
                </g>
                <path stroke="#DD9E00" stroke-linecap="round" stroke-linejoin="round" stroke-width="4.5" d="M64.687 154.225v-9.139"/>
                <path fill="#4660BC" fill-rule="nonzero" d="M83.223 171.126v2.673c0 1.18-.946 2.132-2.118 2.132H61.267a3.02 3.02 0 0 1-3.01-3.03v-16.977c0-.731.582-1.318 1.308-1.318h11.757c.727 0 1.31.587 1.31 1.318v6.298h1.747c4.887 0 8.844 3.984 8.844 8.904z"/>
                <path stroke="#FFB703" stroke-linecap="round" stroke-linejoin="round" stroke-width="4.5" d="M73.01 146.61l13.618-11.425 13.618 15.994"/>
                <path fill="#7190FF" fill-rule="nonzero" d="M124.744 157.561l-16.092 12.285a2.65 2.65 0 0 1-3.723-.518l-1.18-1.569-.008-.007-9.048-12.01a1.611 1.611 0 0 1 .31-2.248l8.92-6.808a1.578 1.578 0 0 1 2.224.312l3.61 4.79 1.399-1.066c3.889-2.97 9.434-2.2 12.385 1.721l1.611 2.133c.704.937.522 2.27-.408 2.985z"/>
                <path stroke="#E6F0FF" stroke-linecap="round" stroke-width=".9" d="M111.216 150.798s4.396-3.876 10.138-.411"/>
                <g transform="translate(0 1.523)">
                    <g transform="translate(0 7.106)">
                        <mask id="r" fill="#fff">
                            <use xlink:href="#q"/>
                        </mask>
                        <use fill="#FFF" fill-rule="nonzero" xlink:href="#q"/>
                        <path fill="#F4F4F4" fill-rule="nonzero" d="M123.571 64.752c3.571 28.789-18.52 55.262-49.328 59.131-30.808 3.869-58.68-16.329-62.244-45.118 0 0 23.53-7.6 55.76-11.858 29.325-3.869 55.812-2.155 55.812-2.155z" mask="url(#r)"/>
                    </g>
                    <path fill="#E0E0E0" fill-rule="nonzero" d="M102.448 73.807H83.473s1.407-21.157 2.005-27.265l1.051-18.484c0-11.577 9.321-20.952 20.814-20.952 0 0-13.762 15.339-9.662 33.389 3.397 14.965 4.767 33.312 4.767 33.312z"/>
                    <ellipse cx="120.167" cy="25.826" fill="#353535" fill-rule="nonzero" rx="1.158" ry="1.165"/>
                    <path fill="#FD8C00" fill-rule="nonzero" d="M113.887 36.405h21.177v1.097c0 .228-.106.426-.273.495-.999.426-4.85 1.858-13.217 2.551-2.542.213-2.95.137-5.402.137-.446 0-1.24.008-1.62-.343-.325-.297-1.111-.83-1.164-3.457-.008-.297.28-.48.499-.48z"/>
                    <path fill="#E0E0E0" fill-rule="nonzero" d="M106.737 7.662L102.35.175s5.63-.099 4.388 7.487z"/>
                    <path fill="#FFF" fill-rule="nonzero" d="M106.874 7.768l2.428-6.016c-.007 0 2.626 4.021-2.428 6.016z"/>
                    <path fill="#E07500" fill-rule="nonzero" d="M135.253 37.517v-1.15l-21.358.038c-.22 0-.583.16-.576.442l.099 1.34 21.835-.67z"/>
                    <path fill="#FFC403" fill-rule="nonzero" d="M114.848 37.037h20.238c.78 0 1.407-.617 1.407-1.37 0-.397-.174-.778-.484-1.037-1.331-1.104-5.508-4.013-14.064-5.468-2.247-.38-4.336-.571-6.227-.328-.757.1-1.612.465-2.118 1.067-.939 1.104-1.998 3.396-1.249 5.765.462 1.478 1.718 1.371 2.497 1.371z"/>
                    <path stroke="#FFF" stroke-linecap="round" stroke-width=".9" d="M121.294 30.647s5.356.518 9.896 2.506"/>
                    <ellipse cx="132.484" cy="33.678" fill="#FFF" fill-rule="nonzero" rx="1" ry="1"/>
                    <ellipse cx="111.731" cy="26.017" fill="#353535" fill-rule="nonzero" rx="1.158" ry="1.165"/>
                </g>
                <path fill="#E0E0E0" fill-rule="nonzero" d="M127.384 63.747c3.768 30.395-17.658 58.118-47.86 61.91-30.195 3.793-57.735-17.775-61.502-48.179 0 0 23.022-7.799 54.602-11.98 28.757-3.808 54.76-1.751 54.76-1.751z"/>
                <g transform="translate(18.022 63.103)">
                    <mask id="t" fill="#fff">
                        <use xlink:href="#s"/>
                    </mask>
                    <use fill="#E0E0E0" fill-rule="nonzero" xlink:href="#s"/>
                    <path fill="#FFF" fill-rule="nonzero" d="M100.617 52.661s-48.648 29.345-56.6 10.663c-4.539-10.663 23.31-17.517 23.31-17.517S34.94 53.423 32.67 47.33c-3.36-9.018 37.072-12.186 37.072-12.186s-40.098 6.093-41.612-2.285c-1.187-6.572 43.125-6.854 43.125-6.854s-43.881.761-44.638-7.616c-.62-6.87 46.008-6.093 46.008-6.093s-43.246.655-44.495-6.855C26.616-3.698 70.28.758 70.28.758s-7.49-4.456-6.734-8.264c.756-3.808 15.131 6.093 15.131 6.093l31.163-2.285.613 54.074" mask="url(#t)"/>
                </g>
                <path fill="#F29C46" fill-rule="nonzero" d="M87.763 63.975s30.262-6.093 32.532 34.272c0 0 9.896-43.48-32.532-34.272z"/>
                <g>
                    <path fill="#FFF" fill-rule="nonzero" d="M208.64 44.036l-40.756 7.951a1.686 1.686 0 0 1-1.975-1.34L160.87 24.47a1.696 1.696 0 0 1 1.332-1.987l40.756-7.952a1.686 1.686 0 0 1 1.975 1.34l5.039 26.177c.174.922-.416 1.813-1.332 1.988z"/>
                    <path stroke="#F2F2F2" stroke-linecap="round" stroke-width=".9" d="M162.285 24.752l21.078 10.472a4.024 4.024 0 0 0 4.252-.784l16.274-18.058"/>
                    <path fill="#E8E8E8" fill-rule="nonzero" d="M205.448 41.538l-4.298.838a.606.606 0 0 1-.703-.48l-.477-2.49a.61.61 0 0 1 .477-.709l4.297-.837a.606.606 0 0 1 .704.48l.476 2.49a.606.606 0 0 1-.476.708z"/>
                </g>
                <path fill="#D6D6D6" fill-rule="nonzero" d="M155.854 39.604s11.092-11.935 15.132-11.425c6.052.762-7.566 17.449-7.566 17.449"/>
                <g>
                    <g transform="translate(89.261 .072)">
                        <mask id="v" fill="#fff">
                            <use xlink:href="#u"/>
                        </mask>
                        <use fill="#FFCD8A" fill-rule="nonzero" xlink:href="#u"/>
                        <path fill="#F2AF6B" fill-rule="nonzero" d="M-2.266 2.953l12.108-.015-.01 8.376-12.108.015z" mask="url(#v)" transform="rotate(-10.971 3.783 7.134)"/>
                    </g>
                    <g transform="translate(87.868 6.329)">
                        <mask id="x" fill="#fff">
                            <use xlink:href="#w"/>
                        </mask>
                        <use fill="#FFB564" fill-rule="nonzero" xlink:href="#w"/>
                        <path fill="#EF9748" fill-rule="nonzero" d="M11.243 11.188l-12.688 2.894-1.581-8.225 14.851-2.894z" mask="url(#x)"/>
                    </g>
                </g>
            </g>
            <path fill="#818AF7" fill-rule="nonzero" d="M724.628 475.15c-4.058 1.083-12.203-.47-16.313-8.006-4.11-7.528-1.41-12.421-2.22-17.534-.765-4.825-1.665-12.96 1.223-18.883 3.51-7.195-4.673-18.511.202-23.927 3.765-4.188 9.09.455 12.532 7.362 3.443 6.908 2.768 10.082 7.05 14.93 4.898 5.544 4.808 13.716 4.68 16.92-.157 4.105 1.748 4.825 2.745 11.718.698 4.877-1.912 15.284-9.9 17.42z"/>
            <path fill="#4D529E" fill-rule="nonzero" d="M719.475 482.134a5.584 5.584 0 0 0 2.13-4.613c-.21-5.128-2.655-15.285-18.015-18.966-20.902-5.006-12.113.848-7.83 5.355 8.842 9.301 13.553 21.08 21.667 19.224a5.18 5.18 0 0 0 2.048-1z"/>
            <path stroke="#6870BC" stroke-linecap="round" stroke-width=".9" d="M696.555 459.744s21.323 9.726 27.375 29.169"/>
            <path stroke="#9DAFEA" stroke-linecap="round" stroke-width=".675" d="M710.303 407.876s12.082 30.373 15.742 81.037"/>
            <g stroke="#9DAFEA" stroke-linecap="round" stroke-width=".675">
                <path d="M720.84 448.322s3.795-8.37 6.742-18.45M716.625 429.023c-.195-8.233 2.813-15.61 2.813-15.61M707.633 421.926s5.017 2.22 8.992 6.81M705.945 435.832s12.495 7.423 14.895 12.49M706.222 454.851s15.525 8.423 18.09 16.065"/>
            </g>
            <path fill="#DFE9F4" fill-rule="nonzero" d="M665 147.46c1.333 0 1.333-2 0-2s-1.333 2 0 2z"/>
            <circle cx="613" cy="263.46" r="2" fill="#A0C0F2" fill-rule="nonzero"/>
            <circle cx="606.5" cy="250.96" r="2.5" fill="#818CF2" fill-rule="nonzero"/>
            <circle cx="619" cy="245.46" r="1" fill="#A0C0F2" fill-rule="nonzero"/>
            <circle cx="620.5" cy="237.96" r="1.5" fill="#FFBE3B" fill-rule="nonzero"/>
            <path fill="#FFBE3B" fill-rule="nonzero" d="M509.348 50.78l10.786 5.379a2.868 2.868 0 0 0 3.846-1.29L540.7 21.326a2.868 2.868 0 0 0-1.29-3.846L505.866.76a2.868 2.868 0 0 0-3.846 1.29L485.3 35.602a2.868 2.868 0 0 0 1.29 3.846l10.786 5.378c.327.167.547.493.57.857l.599 9.793c.045.789.933 1.229 1.593.797l8.177-5.417a1.028 1.028 0 0 1 1.032-.075z"/>
        </g>
        <path fill="#DFE9F4" fill-rule="nonzero" d="M1182.875 15.501l-2.862 6.831c-.378.9.045 1.926.945 2.304l21.249 8.892c.9.378 1.926-.045 2.304-.945l8.892-21.249a1.756 1.756 0 0 0-.945-2.304L1191.209.138a1.753 1.753 0 0 0-2.304.945l-2.862 6.831a.659.659 0 0 1-.504.387l-5.985.765a.629.629 0 0 0-.423 1.008l3.654 4.797c.144.18.18.423.09.63z"/>
        <path fill="#B7CFF7" fill-rule="nonzero" d="M0 618h1920v207H0z"/>
    </g>
</svg>
