<svg xmlns="http://www.w3.org/2000/svg" xmlns:xlink="http://www.w3.org/1999/xlink" width="286" height="80" viewBox="0 0 286 80">
    <defs>
        <rect id="b" width="266" height="60" x="10" y="8" rx="30"/>
        <filter id="a" width="112%" height="153.3%" x="-6%" y="-23.3%" filterUnits="objectBoundingBox">
            <feOffset dy="2" in="SourceAlpha" result="shadowOffsetOuter1"/>
            <feGaussianBlur in="shadowOffsetOuter1" result="shadowBlurOuter1" stdDeviation="5"/>
            <feColorMatrix in="shadowBlurOuter1" values="0 0 0 0 0 0 0 0 0 0 0 0 0 0 0 0 0 0 0.16 0"/>
        </filter>
        <path id="c" d="M0 .033h23V23H0z"/>
    </defs>
    <g fill="none" fill-rule="evenodd">
        <use fill="#000" filter="url(#a)" xlink:href="#b"/>
        <use fill="#5057EF" xlink:href="#b"/>
        <text fill="#FFF" font-family="SpoqaHanSans-Bold, SpoqaHanSans" font-size="18" font-weight="bold">
            <tspan x="77.157" y="45">카카오톡으로 시작하기</tspan>
        </text>
        <circle cx="47.5" cy="38.5" r="18.5" fill="#FFE118"/>
        <g>
            <g transform="translate(36 28)">
                <mask id="d" fill="#fff">
                    <use xlink:href="#c"/>
                </mask>
                <path fill="#381E1F" d="M11.5.033C5.149.033 0 4.457 0 9.914c0 3.553 2.182 6.667 5.456 8.408-.24.976-.871 3.536-.997 4.084-.156.68.228.67.481.488.198-.143 3.15-2.326 4.426-3.268.691.111 1.405.17 2.134.17 6.351 0 11.5-4.424 11.5-9.882C23 4.457 17.851.033 11.5.033" mask="url(#d)"/>
            </g>
        </g>
    </g>
</svg>
