<svg xmlns="http://www.w3.org/2000/svg" xmlns:xlink="http://www.w3.org/1999/xlink" width="960" height="127" viewBox="0 0 960 127">
    <defs>
        <rect id="b" width="107" height="67" x="424" y="79" rx="3"/>
        <filter id="a" width="131.3%" height="150%" x="-15.7%" y="-22%" filterUnits="objectBoundingBox">
            <feMorphology in="SourceAlpha" operator="dilate" radius=".75" result="shadowSpreadOuter1"/>
            <feOffset dy="2" in="shadowSpreadOuter1" result="shadowOffsetOuter1"/>
            <feGaussianBlur in="shadowOffsetOuter1" result="shadowBlurOuter1" stdDeviation="5"/>
            <feComposite in="shadowBlurOuter1" in2="SourceAlpha" operator="out" result="shadowBlurOuter1"/>
            <feColorMatrix in="shadowBlurOuter1" values="0 0 0 0 0 0 0 0 0 0 0 0 0 0 0 0 0 0 0.032260708 0"/>
        </filter>
    </defs>
    <g fill="none" fill-rule="evenodd" transform="translate(0 -40)">
        <path fill="#F1F1F1" d="M0 0h960v189H0z"/>
        <use fill="#000" filter="url(#a)" xlink:href="#b"/>
        <use fill="#CFD1FF" stroke="#5057EF" stroke-width="1.5" xlink:href="#b"/>
        <rect width="91" height="2" x="427" y="81" fill="#F1F1F1" rx="1"/>
        <path fill="#F1F1F1" d="M428.5 83.5v54a1 1 0 1 1-2 0v-54a1 1 0 1 1 2 0z"/>
        <path fill="#CFD1FF" d="M311.5 36.217c8.008 0 14.5 6.492 14.5 14.5s-6.492 14.5-14.5 14.5h-47c-1.986 0-3.879-.4-5.602-1.122L250 75.217v-25c.272-7.777 6.66-14 14.5-14h47z"/>
        <path stroke="#646364" stroke-width="1.3" d="M314.5 36.217c8.008 0 14.5 6.492 14.5 14.5s-6.492 14.5-14.5 14.5h-47c-1.986 0-3.879-.4-5.602-1.122L253 75.217v-25c.272-7.777 6.66-14 14.5-14h47z"/>
        <path fill="#CFD1FF" d="M684.842 79.183c-6.776 0-12.27 5.494-12.27 12.27s5.494 12.269 12.27 12.269h29.889c1.675 0 3.272-.336 4.727-.944l7.542 9.405V91.03c-.23-6.58-5.635-11.847-12.27-11.847h-29.888z"/>
        <path stroke="#646364" stroke-width="1.3" d="M681.803 79.183c-6.776 0-12.27 5.494-12.27 12.27s5.494 12.269 12.27 12.269h30.383c1.676 0 3.273-.336 4.727-.944l7.543 9.405V91.03c-.23-6.58-5.635-11.847-12.27-11.847h-30.383z"/>
        <path fill="#CFD1FF" d="M630.492 143.254c-9.367 0-16.96 7.593-16.96 16.96s7.593 16.96 16.96 16.96h55.548c2.303 0 4.5-.459 6.502-1.29L703 188.87V159.63c-.318-9.096-7.79-16.375-16.96-16.375h-55.548z"/>
        <path stroke="#646364" stroke-width="1.3" d="M626.96 143.254c-9.367 0-16.96 7.593-16.96 16.96s7.593 16.96 16.96 16.96h55.548c2.303 0 4.5-.459 6.502-1.29l10.458 12.987V159.63c-.318-9.096-7.789-16.375-16.96-16.375H626.96z"/>
        <rect width="56" height="3" x="627" y="155" fill="#F1F1F1" rx="1.5"/>
        <rect width="49" height="3" x="266" y="46" fill="#F1F1F1" rx="1.5"/>
        <rect width="36" height="3" x="627" y="163" fill="#F1F1F1" rx="1.5"/>
        <rect width="25" height="3" x="266" y="54" fill="#F1F1F1" rx="1.5"/>
        <g transform="translate(24 70)">
            <circle cx="18" cy="18" r="18" fill="#E7E7E7"/>
            <path fill="#888" fill-rule="nonzero" d="M18 17c2.21 0 4-1.79 4-4s-1.79-4-4-4-4 1.79-4 4 1.79 4 4 4zm0 2c-2.67 0-8 1.34-8 4v2h16v-2c0-2.66-5.33-4-8-4z" opacity=".351"/>
            <path d="M6 5h24v24H6z"/>
        </g>
        <g transform="translate(739 122)">
            <circle cx="14.4" cy="14.4" r="14.4" fill="#E7E7E7"/>
            <path fill="#888" fill-rule="nonzero" d="M14.4 13.6a3.2 3.2 0 1 0 0-6.4 3.2 3.2 0 1 0 0 6.4zm0 1.6c-2.136 0-6.4 1.072-6.4 3.2V20h12.8v-1.6c0-2.128-4.264-3.2-6.4-3.2z" opacity=".351"/>
            <path d="M4.8 4H24v19.2H4.8z"/>
        </g>
        <g transform="translate(945 103.5)">
            <circle cx="11.5" cy="12" r="11.5" fill="#E7E7E7"/>
            <path fill="#888" fill-rule="nonzero" d="M11.5 11a2.5 2.5 0 1 0 .001-4.999A2.5 2.5 0 0 0 11.5 11zm0 1.25c-1.669 0-5 .838-5 2.5V16h10v-1.25c0-1.662-3.331-2.5-5-2.5z" opacity=".351"/>
            <path d="M4 3.5h15v15H4z"/>
        </g>
        <g opacity=".75" transform="translate(870 143)">
            <circle cx="20" cy="19.5" r="19.5" fill="#E7E7E7"/>
            <path fill="#888" fill-rule="nonzero" d="M19.5 18a4.332 4.332 0 0 0 4.333-4.333A4.332 4.332 0 0 0 19.5 9.333a4.332 4.332 0 0 0-4.333 4.334A4.332 4.332 0 0 0 19.5 18zm0 2.167c-2.893 0-8.667 1.451-8.667 4.333v2.167h17.334V24.5c0-2.882-5.775-4.333-8.667-4.333z" opacity=".351"/>
            <path d="M6.5 5h26v26h-26z"/>
        </g>
        <g opacity=".639" transform="translate(771 36)">
            <circle cx="28.5" cy="28.5" r="28.5" fill="#E7E7E7"/>
            <path fill="#888" fill-rule="nonzero" d="M29 27c3.5 0 6.333-2.834 6.333-6.333 0-3.5-2.834-6.334-6.333-6.334a6.332 6.332 0 0 0-6.333 6.334C22.667 24.166 25.5 27 29 27zm0 3.167c-4.227 0-12.667 2.121-12.667 6.333v3.167h25.334V36.5c0-4.212-8.44-6.333-12.667-6.333z" opacity=".351"/>
            <path d="M10 8h38v38H10z"/>
        </g>
        <g transform="translate(305 117)">
            <circle cx="18" cy="19" r="18" fill="#CFD1FF" stroke="#5057EF" stroke-width="1.5"/>
            <path fill="#5057EF" fill-rule="nonzero" d="M18 18c2.21 0 4-1.79 4-4s-1.79-4-4-4-4 1.79-4 4 1.79 4 4 4zm0 2c-2.67 0-8 1.34-8 4v2h16v-2c0-2.66-5.33-4-8-4z"/>
            <path d="M6 6h24v24H6z"/>
            <circle cx="31" cy="8" r="8" fill="#5057EF"/>
            <path stroke="#FFF" stroke-width="1.5" d="M27.143 7.828l2.492 2.713 5.508-6"/>
        </g>
        <g transform="translate(382 25)">
            <circle cx="18" cy="19" r="18" fill="#CFD1FF" stroke="#5057EF" stroke-width="1.5"/>
            <path fill="#5057EF" fill-rule="nonzero" d="M18 18c2.21 0 4-1.79 4-4s-1.79-4-4-4-4 1.79-4 4 1.79 4 4 4zm0 2c-2.67 0-8 1.34-8 4v2h16v-2c0-2.66-5.33-4-8-4z"/>
            <path d="M6 6h24v24H6z"/>
            <circle cx="31" cy="8" r="8" fill="#5057EF"/>
        </g>
        <g opacity=".624" transform="translate(60 153)">
            <circle cx="11.5" cy="11.5" r="11.5" fill="#E7E7E7"/>
            <path fill="#888" fill-rule="nonzero" d="M11.5 10.5a2.5 2.5 0 1 0 .001-4.999A2.5 2.5 0 0 0 11.5 10.5zm0 1.25c-1.669 0-5 .838-5 2.5v1.25h10v-1.25c0-1.662-3.331-2.5-5-2.5z" opacity=".351"/>
            <path d="M4 3h15v15H4z"/>
        </g>
        <g opacity=".8" transform="translate(170 111)">
            <circle cx="13.5" cy="13.5" r="13.5" fill="#E7E7E7"/>
            <path fill="#888" fill-rule="nonzero" d="M14 12a3 3 0 1 0 0-6 3 3 0 1 0 0 6zm0 1.5c-2.003 0-6 1.005-6 3V18h12v-1.5c0-1.995-3.998-3-6-3z" opacity=".351"/>
            <path d="M5 3h18v18H5z"/>
        </g>
        <g opacity=".539" transform="translate(110 34)">
            <circle cx="20.25" cy="20.25" r="20.25" fill="#E7E7E7"/>
            <path fill="#888" fill-rule="nonzero" d="M21 18c2.486 0 4.5-2.014 4.5-4.5S23.486 9 21 9a4.499 4.499 0 0 0-4.5 4.5c0 2.486 2.014 4.5 4.5 4.5zm0 2.25c-3.004 0-9 1.508-9 4.5V27h18v-2.25c0-2.992-5.996-4.5-9-4.5z" opacity=".351"/>
            <path d="M7.5 4.5h27v27h-27z"/>
        </g>
        <g>
            <g transform="translate(563 48)">
                <circle cx="21.6" cy="22.8" r="21.6" fill="#CFD1FF" stroke="#5057EF" stroke-width="1.8"/>
                <path fill="#5057EF" fill-rule="nonzero" d="M21.6 21.6c2.652 0 4.8-2.148 4.8-4.8 0-2.652-2.148-4.8-4.8-4.8a4.799 4.799 0 0 0-4.8 4.8c0 2.652 2.148 4.8 4.8 4.8zm0 2.4c-3.204 0-9.6 1.608-9.6 4.8v2.4h19.2v-2.4c0-3.192-6.396-4.8-9.6-4.8z"/>
                <path d="M7.2 7.2H36V36H7.2z"/>
                <circle cx="37.2" cy="9.6" r="9.6" fill="#5057EF"/>
                <path stroke="#FFF" stroke-width="1.8" d="M32.572 9.393l2.99 3.257 6.61-7.2"/>
            </g>
        </g>
        <path stroke="#5057EF" stroke-linecap="round" stroke-width="1.5" d="M424.685 80.908l44.207 30.97a15 15 0 0 0 17.215 0l44.194-30.97"/>
        <path stroke="#5057EF" stroke-width="1.5" d="M424.685 145l41.756-34.231M529.756 145L488 110.769"/>
    </g>
</svg>
