<svg xmlns="http://www.w3.org/2000/svg" xmlns:xlink="http://www.w3.org/1999/xlink" width="29" height="29" viewBox="0 0 29 29">
    <defs>
        <path id="a" d="M.285.467H4.57v3.75H.285z"/>
    </defs>
    <g fill="none" fill-rule="evenodd">
        <path fill="#797FFF" d="M6.25 23.392c1.362.6 5.916 1.429 7.5 1.429 6.114 0 11.07-6.055 11.07-12.17 0-6.114-4.956-11.07-11.07-11.07C7.635 1.579 2.678 6.536 2.678 12.65v13.241" opacity=".538"/>
        <path fill="#000" d="M.536 28.747A.536.536 0 0 1 0 28.212V12.678C0 5.688 5.688 0 12.678 0c6.991 0 12.679 5.688 12.679 12.678 0 6.991-5.688 12.679-12.679 12.679a12.58 12.58 0 0 1-5.097-1.067.535.535 0 1 1 .431-.981c1.473.648 3.043.976 4.666.976 6.4 0 11.607-5.207 11.607-11.607 0-6.4-5.207-11.607-11.607-11.607-6.4 0-11.606 5.207-11.606 11.607v14.36l9.291-8.046a.536.536 0 0 1 .702.81L.887 28.616a.537.537 0 0 1-.351.131"/>
        <path fill="#000" d="M21.607 11.428a.893.893 0 1 1-1.787 0 .893.893 0 0 1 1.787 0"/>
        <g transform="translate(24 10.247)">
            <mask id="b" fill="#fff">
                <use xlink:href="#a"/>
            </mask>
            <path fill="#000" d="M4.035 4.217H.82a.536.536 0 1 1 0-1.072h2.678V2.61c0-.591-.48-1.072-1.071-1.072H.82a.536.536 0 1 1 0-1.071h1.607c1.181 0 2.143.96 2.143 2.143V3.68c0 .296-.24.536-.536.536" mask="url(#b)"/>
        </g>
        <path fill="#000" d="M25.892 16.785H24.82a.535.535 0 1 1 0-1.071h1.072c.29 0 .536-.344.536-.75v-.322H24.82a.535.535 0 1 1 0-1.07h2.143c.296 0 .536.239.536.535v.857c0 1.004-.721 1.821-1.607 1.821"/>
    </g>
</svg>
